<svg width="208" height="32" viewBox="0 0 208 32" fill="none" xmlns="http://www.w3.org/2000/svg">
<g clip-path="url(#clip0_118_120143)">
<path d="M11.442 31.0031C6.18243 30.609 3.01304 23.3125 7.75228 19.842C9.94006 18.1146 12.621 19.6211 12.1117 22.183C12.0344 22.5719 11.8652 22.9355 11.6667 23.2788C10.2063 25.804 9.95428 28.345 11.442 31.0031Z" fill="#01C1C9"/>
<path d="M23.6735 30.5265C19.6757 33.9668 12.2752 31.0485 13.1724 25.2434C13.4979 22.4749 16.4589 21.6445 17.9103 23.8162C18.1306 24.1459 18.2681 24.5226 18.3705 24.9057C19.1234 27.7239 20.7419 29.6989 23.6735 30.5265Z" fill="#01C1C9"/>
<path d="M31.985 21.5399C31.5909 26.7994 24.2944 29.9688 20.8239 25.2295C19.0965 23.0418 20.6031 20.3608 23.1649 20.8701C23.5539 20.9475 23.9175 21.1166 24.2608 21.3151C26.7859 22.7755 29.3269 23.0275 31.985 21.5399Z" fill="#01C1C9"/>
<path d="M31.5082 9.30859C34.9485 13.3063 32.0302 20.7068 26.2251 19.8097C23.4566 19.4842 22.6262 16.5232 24.7978 15.0718C25.1275 14.8514 25.5043 14.7139 25.8874 14.6116C28.7055 13.8586 30.6805 12.2401 31.5082 9.30859Z" fill="#01C1C9"/>
<path d="M22.522 0.996582C27.7816 1.39071 30.9509 8.68721 26.2117 12.1577C24.0239 13.8851 21.343 12.3785 21.8523 9.81667C21.9296 9.42772 22.0988 9.06414 22.2973 8.72084C23.7576 6.19569 24.0097 3.6547 22.522 0.996582Z" fill="#01C1C9"/>
<path d="M10.2905 1.47377C14.2883 -1.96659 21.6888 0.951717 20.7916 6.75689C20.4661 9.52534 17.5051 10.3557 16.0537 8.18409C15.8334 7.85439 15.6959 7.47768 15.5935 7.09455C14.8406 4.27639 13.222 2.3014 10.2905 1.47377Z" fill="#01C1C9"/>
<path d="M1.97876 10.46C2.37288 5.20049 9.66939 2.0311 13.1399 6.77034C14.8673 8.95812 13.3607 11.6391 10.7989 11.1297C10.4099 11.0524 10.0463 10.8833 9.70302 10.6847C7.17787 9.22441 4.63688 8.97234 1.97876 10.46Z" fill="#01C1C9"/>
<path d="M2.4557 22.6915C-0.984654 18.6938 1.93365 11.2933 7.73882 12.1904C10.5073 12.516 11.3377 15.477 9.16603 16.9284C8.83632 17.1487 8.45962 17.2862 8.07649 17.3885C5.25833 18.1415 3.28333 19.76 2.4557 22.6915Z" fill="#01C1C9"/>
<path d="M63.2697 17.8608V25.9111H60.7358V18.1511C60.7358 15.4061 59.4162 14.06 57.1199 14.06C54.586 14.06 52.9231 15.67 52.9231 18.7054V25.9111H50.3892V18.1511C50.3892 15.4061 49.0694 14.06 46.7731 14.06C44.2393 14.06 42.5764 15.67 42.5764 18.7054V25.9111H40.0425V11.9219H42.4708V14.0071C43.4738 12.5818 45.1894 11.79 47.301 11.79C49.4391 11.79 51.2339 12.6347 52.1577 14.3766C53.2134 12.7931 55.1667 11.79 57.5422 11.79C60.9471 11.79 63.2697 13.7432 63.2697 17.8608Z" fill="#01C1C9"/>
<path d="M66.2002 18.9165C66.2002 14.7462 69.2884 11.79 73.4851 11.79C77.6817 11.79 80.7436 14.7462 80.7436 18.9165C80.7436 23.0868 77.6819 26.0695 73.4851 26.0695C69.2883 26.0695 66.2002 23.087 66.2002 18.9165ZM78.1834 18.9165C78.1834 15.934 76.1773 14.0071 73.4851 14.0071C70.7928 14.0071 68.7604 15.934 68.7604 18.9165C68.7604 21.8991 70.7929 23.8524 73.4851 23.8524C76.1772 23.8524 78.1834 21.8991 78.1834 18.9165Z" fill="#01C1C9"/>
<path d="M91.249 11.79V14.2447C91.0379 14.2184 90.8532 14.2184 90.6685 14.2184C87.9497 14.2184 86.2604 15.8811 86.2604 18.943V25.9111H83.7266V11.9219H86.1549V14.2711C87.0524 12.6347 88.7943 11.79 91.249 11.79Z" fill="#01C1C9"/>
<path d="M106.294 19.7612H94.9448C95.2615 22.2158 97.2411 23.8524 100.013 23.8524C101.649 23.8524 103.022 23.2981 104.051 22.1631L105.45 23.7996C104.183 25.2776 102.256 26.0695 99.9333 26.0695C95.4199 26.0695 92.4109 23.087 92.4109 18.9165C92.4109 14.7726 95.3934 11.79 99.4318 11.79C103.47 11.79 106.347 14.6934 106.347 18.9957C106.347 19.207 106.321 19.5236 106.294 19.7612ZM94.9448 17.94H103.919C103.655 15.5909 101.887 13.928 99.4318 13.928C97.0035 13.928 95.2087 15.5645 94.9448 17.94Z" fill="#01C1C9"/>
<path d="M107.562 24.433L108.618 22.4271C109.805 23.2717 111.706 23.8787 113.527 23.8787C115.876 23.8787 116.853 23.1662 116.853 21.9783C116.853 18.8373 108.011 21.556 108.011 15.9867C108.011 13.4793 110.254 11.79 113.844 11.79C115.665 11.79 117.724 12.2651 118.938 13.057L117.856 15.063C116.589 14.2447 115.19 13.9543 113.818 13.9543C111.6 13.9543 110.518 14.7726 110.518 15.8811C110.518 19.1805 119.387 16.4882 119.387 21.9256C119.387 24.4594 117.064 26.0695 113.342 26.0695C111.02 26.0695 108.723 25.3568 107.562 24.433Z" fill="#01C1C9"/>
<path d="M129.892 25.0925C129.127 25.7524 127.965 26.0692 126.831 26.0692C124.006 26.0692 122.396 24.5118 122.396 21.6877V14.0068H120.021V11.9216H122.396V8.85986H124.93V11.9216H128.942V14.0068H124.93V21.5821C124.93 23.0866 125.722 23.9313 127.121 23.9313C127.86 23.9313 128.572 23.6937 129.1 23.2714L129.892 25.0925Z" fill="#01C1C9"/>
<path d="M143.512 17.4649V25.9111H141.11V24.0635C140.265 25.3304 138.708 26.0695 136.517 26.0695C133.35 26.0695 131.344 24.3803 131.344 21.9519C131.344 19.7085 132.795 17.8608 136.966 17.8608H140.978V17.3593C140.978 15.2212 139.737 13.9808 137.23 13.9808C135.567 13.9808 133.878 14.5615 132.795 15.4853L131.74 13.5848C133.191 12.4234 135.276 11.79 137.52 11.79C141.347 11.79 143.512 13.6377 143.512 17.4649ZM140.978 21.6352V19.682H137.071C134.564 19.682 133.851 20.6586 133.851 21.8464C133.851 23.2452 135.013 24.1163 136.939 24.1163C138.84 24.1163 140.344 23.2452 140.978 21.6352Z" fill="#01C1C9"/>
<path d="M155.205 11.79V14.2447C154.994 14.2184 154.809 14.2184 154.624 14.2184C151.906 14.2184 150.216 15.8811 150.216 18.943V25.9111H147.682V11.9219H150.111V14.2711C151.008 12.6347 152.75 11.79 155.205 11.79Z" fill="#01C1C9"/>
<path d="M166.238 25.0925C165.473 25.7524 164.311 26.0692 163.176 26.0692C160.352 26.0692 158.742 24.5118 158.742 21.6877V14.0068H156.366V11.9216H158.742V8.85986H161.276V11.9216H165.288V14.0068H161.276V21.5821C161.276 23.0866 162.068 23.9313 163.467 23.9313C164.206 23.9313 164.918 23.6937 165.446 23.2714L166.238 25.0925Z" fill="#01C1C9"/>
<path d="M167.004 24.433L168.06 22.4271C169.247 23.2717 171.148 23.8787 172.969 23.8787C175.318 23.8787 176.295 23.1662 176.295 21.9783C176.295 18.8373 167.452 21.556 167.452 15.9867C167.452 13.4793 169.696 11.79 173.286 11.79C175.107 11.79 177.166 12.2651 178.38 13.057L177.298 15.063C176.031 14.2447 174.632 13.9543 173.259 13.9543C171.042 13.9543 169.96 14.7726 169.96 15.8811C169.96 19.1805 178.829 16.4882 178.829 21.9256C178.829 24.4594 176.506 26.0695 172.784 26.0695C170.461 26.0695 168.165 25.3568 167.004 24.433Z" fill="#01C1C9"/>
<path d="M180.28 24.2479C180.28 23.1922 181.099 22.4531 182.075 22.4531C183.025 22.4531 183.817 23.1922 183.817 24.2479C183.817 25.3036 183.025 26.0692 182.075 26.0692C181.099 26.0692 180.28 25.3038 180.28 24.2479Z" fill="#01C1C9"/>
<path d="M186.483 7.59308C186.483 6.66926 187.222 5.93018 188.199 5.93018C189.175 5.93018 189.914 6.64291 189.914 7.54024C189.914 8.49055 189.202 9.22949 188.199 9.22949C187.222 9.22949 186.483 8.5169 186.483 7.59308ZM186.932 11.9218H189.466V25.9109H186.932V11.9218Z" fill="#01C1C9"/>
<path d="M192.475 18.9165C192.475 14.7462 195.563 11.79 199.76 11.79C203.957 11.79 207.018 14.7462 207.018 18.9165C207.018 23.0868 203.957 26.0695 199.76 26.0695C195.563 26.0695 192.475 23.087 192.475 18.9165ZM204.458 18.9165C204.458 15.934 202.452 14.0071 199.76 14.0071C197.067 14.0071 195.035 15.934 195.035 18.9165C195.035 21.8991 197.067 23.8524 199.76 23.8524C202.452 23.8524 204.458 21.8991 204.458 18.9165Z" fill="#01C1C9"/>
</g>
<defs>
<clipPath id="clip0_118_120143">
<rect width="206.036" height="32" fill="white" transform="translate(0.981934)"/>
</clipPath>
</defs>
</svg>
